<?xml version="1.0" encoding="utf-8"?>
<!-- Generator: Adobe Illustrator 16.0.0, SVG Export Plug-In . SVG Version: 6.00 Build 0)  -->
<!DOCTYPE svg PUBLIC "-//W3C//DTD SVG 1.1//EN" "http://www.w3.org/Graphics/SVG/1.1/DTD/svg11.dtd">
<svg version="1.1" id="Layer_1" xmlns="http://www.w3.org/2000/svg" xmlns:xlink="http://www.w3.org/1999/xlink" x="0px" y="0px"
	 width="1000px" height="1000px" viewBox="0 0 1000 1000" enable-background="new 0 0 1000 1000" xml:space="preserve">
<rect fill="#FFFFFF" width="1000" height="1000"/>
<path fill="none" stroke="#424143" stroke-width="2.8346" enable-background="new    " d="M122.671,522.435
	c-0.205,0.116-0.271,0.372-0.152,0.571c41.421,69.731,186.061,113.043,377.469,113.043c214.929,0,335.914-58.374,377.468-112.998
	c0.144-0.186,0.104-0.45-0.085-0.594c-0.191-0.137-0.459-0.094-0.604,0.087c-41.43,54.469-162.171,112.66-376.778,112.66
	c-191.107,0-335.46-43.151-376.729-112.613C123.14,522.387,122.875,522.318,122.671,522.435z"/>
<path fill="none" stroke="#424143" stroke-width="2.8346" enable-background="new    " d="M814.805,636.151
	c-69.04,58.412-175.04,88.024-315.047,88.024c-159.345,0-271.205-31.24-314.963-87.957c-0.141-0.191-0.411-0.223-0.601-0.085
	c-0.189,0.141-0.223,0.403-0.082,0.589c43.92,56.939,156.021,88.297,315.645,88.297c140.218,0,246.406-29.683,315.609-88.23
	c0.179-0.15,0.197-0.418,0.045-0.594C815.253,636.021,814.986,636.002,814.805,636.151z"/>
<path fill="none" stroke="#424143" stroke-width="2.8346" enable-background="new    " d="M773.089,492.103
	c-14.312,61.05-63.208,219.519-196.175,290.551c-0.206,0.106-0.278,0.368-0.172,0.565c0.116,0.205,0.377,0.277,0.584,0.168
	c133.18-71.142,182.198-229.736,196.571-290.991C773.627,492.302,773.357,492.205,773.089,492.103z"/>
<path fill="none" stroke="#424143" stroke-width="2.8346" enable-background="new    " d="M595.4,521
	c-3.595,62.164-17.857,200.803-74.226,267.042c-0.151,0.177-0.126,0.443,0.051,0.588c0.187,0.155,0.457,0.126,0.605-0.052
	c56.538-66.432,70.83-205.346,74.425-267.578C595.969,521,595.683,521,595.4,521z"/>
<path fill="none" stroke="#424143" stroke-width="2.8346" enable-background="new    " d="M423.096,782.653
	c-133.865-71.512-182.52-231.645-196.46-291.773c-0.308-0.031-0.612-0.076-0.91-0.146c13.868,59.998,62.556,220.859,196.958,292.653
	c0.207,0.109,0.468,0.037,0.584-0.168C423.374,783.021,423.302,782.76,423.096,782.653z"/>
<path fill="none" stroke="#424143" stroke-width="2.8346" enable-background="new    " d="M479.835,788.042
	C423.467,721.803,409.204,583.164,405.61,521c-0.281,0-0.569,0-0.856,0c3.596,62.231,17.887,201.146,74.425,267.578
	c0.148,0.178,0.419,0.207,0.605,0.052C479.961,788.485,479.986,788.219,479.835,788.042z"/>
<path fill="none" stroke="#424143" stroke-width="2.8346" enable-background="new    " d="M900,401.931
	c0,67.404-179.092,122.049-400.012,122.049C279.089,523.979,100,469.335,100,401.931c0-67.386,179.088-122.054,399.987-122.054
	C720.908,279.876,900,334.544,900,401.931z"/>
<g enable-background="new    ">
	<g>
		<path fill="none" stroke="#6E6F72" stroke-width="1.6124" stroke-miterlimit="10" d="M499.988,523.979
			c-210.243,0-382.608-49.5-398.748-112.389c8.711,210.511,183.821,378.547,398.683,378.547
			c214.546,0,389.494-167.606,398.62-377.739C881.14,474.903,709.351,523.979,499.988,523.979z"/>
	</g>
	<g>
		<path fill="none" stroke="#424143" stroke-width="2.8346" d="M499.988,523.979c-210.243,0-382.608-49.5-398.748-112.389
			c8.711,210.511,183.821,378.547,398.683,378.547c214.546,0,389.494-167.606,398.62-377.739
			C881.14,474.903,709.351,523.979,499.988,523.979z"/>
	</g>
</g>
</svg>
